<svg width="110" height="117" viewBox="0 0 110 117" fill="none" xmlns="http://www.w3.org/2000/svg">
<path d="M33 4C33 1.79086 31.2091 0 29 0C26.7909 0 25 1.79086 25 4V44C25 46.2091 26.7909 48 29 48C31.2091 48 33 46.2091 33 44V4Z" fill="#6B9FD4"></path>
<path d="M58.3383 2.78613L37.8595 17.1255C36.276 18.2343 35.8912 20.4167 36.9999 22.0001C38.1087 23.5835 40.2911 23.9683 41.8745 22.8596L62.3533 8.52019C63.9367 7.41147 64.3215 5.22906 63.2128 3.64564C62.1041 2.06222 59.9217 1.67741 58.3383 2.78613Z" fill="#6B9FD4"></path>
<path d="M62.3534 39.48L41.8746 25.1406C40.2912 24.0319 38.1088 24.4167 37.0001 26.0001C35.8913 27.5835 36.2761 29.7659 37.8596 30.8746L58.3384 45.214C59.9218 46.3228 62.1042 45.938 63.2129 44.3545C64.3216 42.7711 63.9368 40.5887 62.3534 39.48Z" fill="#8DC8E8"></path>
<path d="M73 11C75.2091 11 77 9.20914 77 7C77 4.79086 75.2091 3 73 3C70.7909 3 69 4.79086 69 7C69 9.20914 70.7909 11 73 11Z" fill="#D4C4B5"></path>
<path d="M73 45C75.2091 45 77 43.2091 77 41C77 38.7909 75.2091 37 73 37C70.7909 37 69 38.7909 69 41C69 43.2091 70.7909 45 73 45Z" fill="#D4C4B5"></path>
<path d="M7.484 79.128L7.4 76.608L19.272 64.4H21.652L13 73.472L11.824 74.732L7.484 79.128ZM5.692 84V64.4H7.764V84H5.692ZM19.776 84L11.32 74.256L12.72 72.744L22.24 84H19.776ZM41.4944 84.168C40.0197 84.168 38.6477 83.9253 37.3784 83.44C36.1277 82.936 35.0357 82.236 34.1024 81.34C33.1877 80.4253 32.469 79.3707 31.9464 78.176C31.4424 76.9627 31.1904 75.6373 31.1904 74.2C31.1904 72.7627 31.4424 71.4467 31.9464 70.252C32.469 69.0387 33.1877 67.984 34.1024 67.088C35.0357 66.1733 36.1277 65.4733 37.3784 64.988C38.629 64.484 40.001 64.232 41.4944 64.232C42.969 64.232 44.3317 64.484 45.5824 64.988C46.833 65.4733 47.9157 66.164 48.8304 67.06C49.7637 67.956 50.4824 69.0107 50.9864 70.224C51.509 71.4373 51.7704 72.7627 51.7704 74.2C51.7704 75.6373 51.509 76.9627 50.9864 78.176C50.4824 79.3893 49.7637 80.444 48.8304 81.34C47.9157 82.236 46.833 82.936 45.5824 83.44C44.3317 83.9253 42.969 84.168 41.4944 84.168ZM41.4944 82.32C42.6704 82.32 43.753 82.124 44.7424 81.732C45.7504 81.3213 46.6184 80.752 47.3464 80.024C48.093 79.2773 48.6717 78.4187 49.0824 77.448C49.493 76.4587 49.6984 75.376 49.6984 74.2C49.6984 73.024 49.493 71.9507 49.0824 70.98C48.6717 69.9907 48.093 69.132 47.3464 68.404C46.6184 67.6573 45.7504 67.088 44.7424 66.696C43.753 66.2853 42.6704 66.08 41.4944 66.08C40.3184 66.08 39.2264 66.2853 38.2184 66.696C37.2104 67.088 36.333 67.6573 35.5864 68.404C34.8584 69.132 34.2797 69.9907 33.8504 70.98C33.4397 71.9507 33.2344 73.024 33.2344 74.2C33.2344 75.3573 33.4397 76.4307 33.8504 77.42C34.2797 78.4093 34.8584 79.2773 35.5864 80.024C36.333 80.752 37.2104 81.3213 38.2184 81.732C39.2264 82.124 40.3184 82.32 41.4944 82.32ZM69.3148 84L60.6348 64.4H62.8748L70.9948 82.852H69.7628L77.9388 64.4H80.0388L71.3588 84H69.3148ZM87.4857 84L96.4457 64.4H98.4897L107.45 84H105.266L97.0337 65.604H97.8737L89.6417 84H87.4857ZM91.0137 78.764L91.6297 77.084H103.026L103.642 78.764H91.0137Z" fill="white"></path>
<path opacity="0.5" d="M109.25 98H0.75C0.335786 98 0 98.3358 0 98.75C0 99.1642 0.335786 99.5 0.75 99.5H109.25C109.664 99.5 110 99.1642 110 98.75C110 98.3358 109.664 98 109.25 98Z" fill="#6B9FD4"></path>
<path d="M15.77 115V109.89H17.415C17.7323 109.89 18.0076 109.953 18.241 110.079C18.4743 110.2 18.654 110.373 18.78 110.597C18.9106 110.821 18.976 111.087 18.976 111.395C18.976 111.698 18.9106 111.964 18.78 112.193C18.654 112.417 18.4743 112.592 18.241 112.718C18.0076 112.839 17.7323 112.9 17.415 112.9H16.4V115H15.77ZM16.4 112.333H17.415C17.6903 112.333 17.9096 112.249 18.073 112.081C18.241 111.908 18.325 111.68 18.325 111.395C18.325 111.106 18.241 110.877 18.073 110.709C17.9096 110.541 17.6903 110.457 17.415 110.457H16.4V112.333ZM19.9742 115V109.89H20.6042V112.074H22.2422V109.89H22.8722V115H22.2422V112.648H20.6042V115H19.9742ZM23.8705 115L25.2005 109.89H26.0475L27.3705 115H26.7335L26.3975 113.642H24.8505L24.5145 115H23.8705ZM24.9765 113.11H26.2645L25.8725 111.535C25.7978 111.236 25.7395 110.987 25.6975 110.786C25.6555 110.585 25.6298 110.455 25.6205 110.394C25.6112 110.455 25.5855 110.585 25.5435 110.786C25.5015 110.987 25.4432 111.234 25.3685 111.528L24.9765 113.11ZM28.3618 115V109.89H29.9438C30.2471 109.89 30.5131 109.953 30.7418 110.079C30.9704 110.2 31.1478 110.371 31.2738 110.59C31.3998 110.809 31.4628 111.066 31.4628 111.36C31.4628 111.705 31.3718 112.002 31.1898 112.249C31.0124 112.496 30.7698 112.667 30.4618 112.76L31.5328 115H30.7908L29.8108 112.83H28.9918V115H28.3618ZM28.9918 112.263H29.9438C30.2051 112.263 30.4151 112.181 30.5738 112.018C30.7324 111.85 30.8118 111.631 30.8118 111.36C30.8118 111.085 30.7324 110.865 30.5738 110.702C30.4151 110.539 30.2051 110.457 29.9438 110.457H28.9918V112.263ZM32.447 115V109.89H33.273L33.805 111.542C33.8564 111.691 33.903 111.841 33.945 111.99C33.987 112.135 34.0174 112.247 34.036 112.326C34.0594 112.247 34.0897 112.135 34.127 111.99C34.1644 111.841 34.2064 111.689 34.253 111.535L34.757 109.89H35.583V115H34.967V113.145C34.967 112.94 34.974 112.706 34.988 112.445C35.002 112.184 35.0207 111.918 35.044 111.647C35.0674 111.372 35.0907 111.11 35.114 110.863C35.142 110.611 35.1654 110.392 35.184 110.205L34.358 112.76H33.693L32.86 110.205C32.8834 110.387 32.9067 110.599 32.93 110.842C32.9534 111.08 32.9744 111.334 32.993 111.605C33.0117 111.871 33.028 112.137 33.042 112.403C33.056 112.669 33.063 112.916 33.063 113.145V115H32.447ZM36.4623 115L37.7923 109.89H38.6393L39.9623 115H39.3253L38.9893 113.642H37.4423L37.1063 115H36.4623ZM37.5683 113.11H38.8563L38.4643 111.535C38.3896 111.236 38.3313 110.987 38.2893 110.786C38.2473 110.585 38.2216 110.455 38.2123 110.394C38.203 110.455 38.1773 110.585 38.1353 110.786C38.0933 110.987 38.035 111.234 37.9603 111.528L37.5683 113.11ZM45.2418 115V114.426H46.2848V110.464H45.2418V109.89H47.9718V110.464H46.9288V114.426H47.9718V115H45.2418ZM49.3341 115V109.89H50.1741L51.7351 114.265C51.7258 114.148 51.7141 114.006 51.7001 113.838C51.6908 113.665 51.6814 113.486 51.6721 113.299C51.6674 113.108 51.6651 112.928 51.6651 112.76V109.89H52.2741V115H51.4341L49.8801 110.625C49.8894 110.737 49.8988 110.879 49.9081 111.052C49.9174 111.22 49.9244 111.4 49.9291 111.591C49.9384 111.778 49.9431 111.957 49.9431 112.13V115H49.3341ZM54.6864 115V110.457H53.2864V109.883H56.7164V110.457H55.3164V115H54.6864ZM57.7986 115V109.89H60.7386V110.464H58.4216V112.046H60.4936V112.613H58.4216V114.426H60.7386V115H57.7986ZM62.1009 115V109.89H62.7309V114.426H65.0409V115H62.1009ZM66.2982 115V109.89H66.9282V114.426H69.2382V115H66.2982ZM70.4254 115V114.426H71.4684V110.464H70.4254V109.89H73.1554V110.464H72.1124V114.426H73.1554V115H70.4254ZM76.0157 115.07C75.7077 115.07 75.4394 115.012 75.2107 114.895C74.9867 114.778 74.8117 114.61 74.6857 114.391C74.5644 114.167 74.5037 113.903 74.5037 113.6V111.29C74.5037 110.982 74.5644 110.718 74.6857 110.499C74.8117 110.28 74.9867 110.112 75.2107 109.995C75.4394 109.878 75.7077 109.82 76.0157 109.82C76.3237 109.82 76.5897 109.881 76.8137 110.002C77.0377 110.119 77.2104 110.287 77.3317 110.506C77.453 110.725 77.5137 110.987 77.5137 111.29H76.8837C76.8837 111.001 76.8067 110.779 76.6527 110.625C76.5034 110.466 76.291 110.387 76.0157 110.387C75.7404 110.387 75.5234 110.464 75.3647 110.618C75.2107 110.772 75.1337 110.994 75.1337 111.283V113.6C75.1337 113.889 75.2107 114.113 75.3647 114.272C75.5234 114.431 75.7404 114.51 76.0157 114.51C76.291 114.51 76.5034 114.431 76.6527 114.272C76.8067 114.113 76.8837 113.889 76.8837 113.6V112.97H75.8477V112.396H77.5137V113.6C77.5137 113.899 77.453 114.16 77.3317 114.384C77.2104 114.603 77.0377 114.774 76.8137 114.895C76.5897 115.012 76.3237 115.07 76.0157 115.07ZM78.785 115V109.89H81.725V110.464H79.408V112.046H81.48V112.613H79.408V114.426H81.725V115H78.785ZM82.9122 115V109.89H83.7522L85.3132 114.265C85.3039 114.148 85.2922 114.006 85.2782 113.838C85.2689 113.665 85.2596 113.486 85.2502 113.299C85.2456 113.108 85.2432 112.928 85.2432 112.76V109.89H85.8522V115H85.0122L83.4582 110.625C83.4676 110.737 83.4769 110.879 83.4862 111.052C83.4956 111.22 83.5026 111.4 83.5072 111.591C83.5166 111.778 83.5212 111.957 83.5212 112.13V115H82.9122ZM88.6075 115.07C88.2995 115.07 88.0312 115.012 87.8025 114.895C87.5785 114.778 87.4035 114.61 87.2775 114.391C87.1562 114.167 87.0955 113.903 87.0955 113.6V111.29C87.0955 110.982 87.1562 110.718 87.2775 110.499C87.4035 110.28 87.5785 110.112 87.8025 109.995C88.0312 109.878 88.2995 109.82 88.6075 109.82C88.9155 109.82 89.1815 109.881 89.4055 110.002C89.6295 110.119 89.8022 110.287 89.9235 110.506C90.0448 110.725 90.1055 110.987 90.1055 111.29H89.4755C89.4755 111.001 89.3985 110.779 89.2445 110.625C89.0952 110.466 88.8828 110.387 88.6075 110.387C88.3322 110.387 88.1152 110.464 87.9565 110.618C87.8025 110.772 87.7255 110.994 87.7255 111.283V113.6C87.7255 113.889 87.8025 114.113 87.9565 114.272C88.1152 114.426 88.3322 114.503 88.6075 114.503C88.8828 114.503 89.0952 114.426 89.2445 114.272C89.3985 114.113 89.4755 113.889 89.4755 113.6H90.1055C90.1055 113.899 90.0448 114.16 89.9235 114.384C89.8022 114.603 89.6295 114.774 89.4055 114.895C89.1815 115.012 88.9155 115.07 88.6075 115.07ZM91.3768 115V109.89H94.3168V110.464H91.9998V112.046H94.0718V112.613H91.9998V114.426H94.3168V115H91.3768Z" fill="white" fill-opacity="0.5"></path>
</svg>