<svg width="52" height="48" viewBox="0 0 52 48" fill="none" xmlns="http://www.w3.org/2000/svg">
  <path d="M8 4C8 1.79086 6.20914 0 4 0C1.79086 0 0 1.79086 0 4V44C0 46.2091 1.79086 48 4 48C6.20914 48 8 46.2091 8 44V4Z" fill="currentColor"></path>
  <path d="M33.3383 2.78613L12.8595 17.1255C11.276 18.2343 10.8912 20.4167 11.9999 22.0001C13.1087 23.5835 15.2911 23.9683 16.8745 22.8596L37.3533 8.52019C38.9367 7.41147 39.3215 5.22906 38.2128 3.64564C37.1041 2.06222 34.9217 1.67741 33.3383 2.78613Z" fill="currentColor"></path>
  <path d="M37.3534 39.48L16.8746 25.1406C15.2912 24.0319 13.1088 24.4167 12.0001 26.0001C10.8913 27.5835 11.2761 29.7659 12.8596 30.8746L33.3384 45.214C34.9218 46.3228 37.1042 45.938 38.2129 44.3545C39.3216 42.7711 38.9368 40.5887 37.3534 39.48Z" fill="currentColor" opacity="0.7"></path>
  <path d="M48 11C50.2091 11 52 9.20914 52 7C52 4.79086 50.2091 3 48 3C45.7909 3 44 4.79086 44 7C44 9.20914 45.7909 11 48 11Z" fill="currentColor" opacity="0.5"></path>
  <path d="M48 45C50.2091 45 52 43.2091 52 41C52 38.7909 50.2091 37 48 37C45.7909 37 44 38.7909 44 41C44 43.2091 45.7909 45 48 45Z" fill="currentColor" opacity="0.5"></path>
</svg>